<svg xmlns="http://www.w3.org/2000/svg" xmlns:xlink="http://www.w3.org/1999/xlink" fill="none" version="1.1" width="36" height="36.00062561035156" viewBox="0 0 36 36.00062561035156"><g><g><ellipse cx="7.680001258850098" cy="7.679998874664307" rx="7.680001258850098" ry="7.679998874664307" fill="#E51B40" fill-opacity="1"/></g><g><ellipse cx="28.267032146453857" cy="28.254336833953857" rx="7.732852458953857" ry="7.732852458953857" fill="#E51B40" fill-opacity="1"/></g><g><path d="M20.8798828125,0C20.8798828125,0,20.8798828125,5.04284,20.8798828125,5.04284C20.8798828125,5.04284,25.9253128125,5.04284,25.9253128125,5.04284C25.9253128125,5.04284,25.9253128125,15.36,25.9253128125,15.36C25.9253128125,15.36,35.9998828125,15.36,35.9998828125,15.36C35.9998828125,15.36,35.9998828125,0,35.9998828125,0C35.9998828125,0,20.8798828125,0,20.8798828125,0Z" fill="#00ABD2" fill-opacity="1"/></g><g><path d="M0,20.640625C0,20.640625,0,25.683464999999998,0,25.683464999999998C0,25.683464999999998,5.04543,25.683464999999998,5.04543,25.683464999999998C5.04543,25.683464999999998,5.04543,36.000625,5.04543,36.000625C5.04543,36.000625,15.12,36.000625,15.12,36.000625C15.12,36.000625,15.12,20.640625,15.12,20.640625C15.12,20.640625,0,20.640625,0,20.640625Z" fill="#00ABD2" fill-opacity="1"/></g></g></svg>