<svg xmlns="http://www.w3.org/2000/svg" xmlns:xlink="http://www.w3.org/1999/xlink" fill="none" version="1.1" width="40" height="40" viewBox="0 0 40 40"><defs><clipPath id="master_svg0_198_48381"><rect x="0" y="0" width="40" height="40" rx="0"/></clipPath></defs><g clip-path="url(#master_svg0_198_48381)"><g><path d="M35,27.49873125C35,28.13203125,34.65,28.68203125,34.1167,28.96533125L20.95,36.36533125C20.6833,36.56533125,20.35,36.66533125,20,36.66533125C19.65,36.66533125,19.3167,36.56533125,19.05,36.36533125L5.883333,28.96533125C5.35,28.68203125,5,28.13203125,5,27.49873125L5,12.49870125C5,11.86536125,5.35,11.315361249999999,5.883333,11.03203125L19.05,3.63203125C19.3167,3.43203115,19.65,3.33203125,20,3.33203125C20.35,3.33203125,20.6833,3.43203115,20.95,3.63203125L34.1167,11.03203125C34.65,11.315361249999999,35,11.86536125,35,12.49870125L35,27.49873125ZM20,6.91536125L10.06667,12.49870125L20,18.08203125L29.9333,12.49870125L20,6.91536125ZM8.33333,26.51533125L18.3333,32.14873125L18.3333,20.96533125L8.33333,15.34873125L8.33333,26.51533125ZM31.6667,26.51533125L31.6667,15.34873125L21.6667,20.96533125L21.6667,32.14873125L31.6667,26.51533125Z" fill="#fff" fill-opacity="1" style="mix-blend-mode:passthrough"/></g></g></svg>