<svg xmlns="http://www.w3.org/2000/svg" xmlns:xlink="http://www.w3.org/1999/xlink" fill="none" version="1.1" width="20" height="20" viewBox="0 0 20 20"><defs><clipPath id="master_svg0_198_48310"><rect x="0" y="0" width="20" height="20" rx="0"/></clipPath></defs><g clip-path="url(#master_svg0_198_48310)"><g><path d="M10.0003221875,1.666015625C14.5836921875,1.666015625,18.3336921875,5.416015625,18.3336921875,9.999345625C18.3336921875,14.582715625,14.5836921875,18.332715625,10.0003221875,18.332715625C5.4169921875,18.332715625,1.6669921875,14.582715625,1.6669921875,9.999345625C1.6669921875,5.416015625,5.4169921875,1.666015625,10.0003221875,1.666015625ZM10.0003221875,3.332685625C6.3169921875,3.332685625,3.3336621875,6.316015625,3.3336621875,9.999345625C3.3336621875,13.682715625,6.3169921875,16.666015625,10.0003221875,16.666015625C13.6836921875,16.666015625,16.6669921875,13.682715625,16.6669921875,9.999345625C16.6669921875,6.316015625,13.6836921875,3.332685625,10.0003221875,3.332685625ZM10.0003221875,4.166015625C13.2252921875,4.166015625,15.8336921875,6.774345625,15.8336921875,9.999345625C15.8336921875,13.224315625,13.2252921875,15.832715625,10.0003221875,15.832715625L10.0003221875,4.166015625Z" fill="#00ABD2" fill-opacity="1" style="mix-blend-mode:passthrough"/></g></g></svg>