<svg xmlns="http://www.w3.org/2000/svg" xmlns:xlink="http://www.w3.org/1999/xlink" fill="none" version="1.1" width="29.169891357421875" height="30" viewBox="0 0 29.169891357421875 30"><g><path d="M25.8349,15C25.8349,14.655,25.8199,14.325,25.7899,13.98L28.5799,11.865C29.1799,11.415,29.3449,10.575,28.9699,9.915L26.1649,5.07C25.7925,4.41205,24.9841,4.14043,24.2899,4.44L21.0649,5.805C20.5099,5.415,19.9249,5.07,19.3099,4.785L18.8749,1.32C18.7849,0.57,18.1399,0,17.3899,0L11.7949,0C11.0299,0,10.3849,0.57,10.2949,1.32L9.85995,4.785C9.24495,5.07,8.65995,5.415,8.10495,5.805L4.87995,4.44C4.18995,4.14,3.37995,4.41,3.00495,5.07L0.199947,9.93C-0.175053,10.59,-0.0100533,11.415,0.589947,11.88L3.37995,13.995C3.31777,14.6686,3.31777,15.3464,3.37995,16.02L0.589947,18.135C-0.0100533,18.585,-0.175053,19.425,0.199947,20.085L3.00495,24.93C3.37995,25.59,4.18995,25.86,4.87995,25.56L8.10495,24.195C8.65995,24.585,9.24495,24.93,9.85995,25.215L10.2949,28.68C10.3849,29.43,11.0299,30,11.7799,30L17.3749,30C18.1249,30,18.7699,29.43,18.8599,28.68L19.2949,25.215C19.9099,24.93,20.4949,24.585,21.0499,24.195L24.2749,25.56C24.9649,25.86,25.7749,25.59,26.1499,24.93L28.9549,20.085C29.3299,19.425,29.1649,18.6,28.5649,18.135L25.7749,16.02C25.8199,15.675,25.8349,15.345,25.8349,15ZM14.6449,20.25C11.7499,20.25,9.39495,17.895,9.39495,15C9.39495,12.105,11.7499,9.75,14.6449,9.75C17.5399,9.75,19.8949,12.105,19.8949,15C19.8949,17.895,17.5399,20.25,14.6449,20.25Z" fill="#00ABD2" fill-opacity="1" style="mix-blend-mode:passthrough"/></g></svg>